<?xml version="1.0" encoding="UTF-8"?>
<svg xmlns="http://www.w3.org/2000/svg" viewBox="0 0 1920 1080">
  <defs>
    <style>
      .brand-orange { fill: #ea6b15; }
      .brand-light { fill: #ffffff; }
    </style>
  </defs>
  <!-- DGL. text in orange -->
  <g>
    <path class="brand-orange" d="M895.25,503.14c0,9.25-.57,19.9-1.42,25.76-1.56,12.34-9.48,21.9-19.82,24.06-5.38,1.23-9.62,1.54-19.67,1.54h-85.36v-1.86l2.71-1.21,16.03-7.16-5.43,4.38c-.94.77-1.09,2.13-.33,3.05.6.75,1.59,1,2.45.69,1.94-.72,4.24-1.53,6.82-2.42,2.59-.89,5.43-1.84,8.44-2.86,17.23-5.8,39.67-13.37,48.24-19.26l.12-.08c6.2-4.3,10.08-10.68,11.38-17.57,1.28-6.92-.06-14.33-4.36-20.6-2.84-4.14-6.59-7.26-10.79-9.27-2.19-1.05-4.48-1.79-6.86-2.24-6.92-1.28-14.34.07-20.59,4.36-.08.04-.12.07-.17.13-13.21,9.72-29.31,23.45-44.32,36.27-.19.18-.41.37-.63.54-.91.78-1.81,1.55-2.71,2.31v-70.07h81.53c19.96,0,29.31,2.47,35.82,9.56,5.24,5.55,7.36,12.03,8.35,25.14.28,4.78.57,11.88.57,16.81Z"/>
    <path class="brand-orange" d="M971.11,515.63h36.38v2.47c0,3.09-.14,4.47-.42,5.71-2.41,6.78-5.95,7.86-24.78,7.71q-17.69,0-20.8-.16c-7.51-.15-11.47-1.08-14.73-3.39-3.96-2.93-5.23-8.48-5.23-22.36,0-6.63.28-16.04.7-18.82.71-6.47,2.98-9.41,8.21-10.79q3.4-.93,17.13-.93l10.48-.15,10.19.15h7.22c8.63.31,11.89,3.39,11.89,11.41h28.17c.14-21.59-4.53-29.61-19.11-33.62-5.95-1.54-14.16-2-39.92-2-17.98,0-29.44.46-35.95,1.39-12.18,1.85-18.83,6.01-23.08,14.03-3.68,7.25-4.81,16.04-4.81,38.09,0,19.13.71,26.38,3.54,33.32,3.25,8.48,9.34,13.26,19.67,15.73,5.95,1.39,14.3,1.85,35.96,1.85,27.89,0,36.52-.15,39.49-.46,11.89-1.39,18.55-6.02,21.8-15.58,1.84-5.55,2.41-11.57,2.41-28.53v-14.19h-64.41v19.12Z"/>
    <path class="brand-orange" d="M1083.85,529.06v-77.42h-28.73v102.87h93.71v-25.45h-64.98Z"/>
    <path class="brand-orange" d="M1164.63,525.81v28.69h28.17v-28.69h-28.17Z"/>
  </g>
  <!-- ONLINE text in white -->
  <g>
    <path class="brand-light" d="M841.76,585.6c-1.08-9.06-4.77-13.4-12.71-15-3.83-.71-8.98-.9-25.02-.9-14.85,0-19.86.37-24.37,1.77-5.8,1.85-8.62,4.89-10.08,10.82-.97,3.96-1.14,6.46-1.14,16.72,0,13.34.5,17.62,2.55,21.83,1.89,4.05,5.11,6.23,10.8,7.32,3.18.7,9.97.98,23.43.98,5.59,0,13.12-.1,16.09-.28,7.74-.34,12.16-1.65,15.27-4.53,4.35-3.91,5.68-9.5,5.68-23.93,0-7.4-.16-12.37-.5-14.8ZM826.43,613.37c-2.59,3.93-6.64,4.36-21.46,4.36-12.86,0-16.44-.29-19.38-2.9-2.62-2.39-3.41-6.07-3.41-15.74,0-8.47.52-12.69,3.68-15.36,2.68-2.14,6.33-2.63,19.53-2.63,21.74,0,23.39.41,23.39,17.62,0,8.05-.33,11.88-2.35,14.65Z"/>
    <polygon class="brand-light" points="906.7 628.49 869.97 578.02 870.43 628.49 857.57 628.49 857.57 570.35 882.26 570.35 919.49 621.25 919.03 570.35 931.64 570.35 931.64 628.49 906.7 628.49"/>
    <polygon class="brand-light" points="948.06 628.49 948.06 570.35 961.63 570.35 961.63 616.9 1000.69 616.9 1000.69 628.49 948.06 628.49"/>
    <rect class="brand-light" x="1013.28" y="570.35" width="13.57" height="58.14"/>
    <polygon class="brand-light" points="1092.2 628.49 1055.47 578.02 1055.94 628.49 1043.07 628.49 1043.07 570.35 1067.76 570.35 1104.99 621.25 1104.53 570.35 1117.14 570.35 1117.14 628.49 1092.2 628.49"/>
    <polygon class="brand-light" points="1133.56 628.49 1133.56 570.35 1192.75 570.35 1192.75 580.64 1146.87 580.64 1146.87 595.01 1190.11 595.01 1190.11 603.54 1146.87 603.54 1146.87 618.2 1193.34 618.2 1193.34 628.49 1133.56 628.49"/>
  </g>
  <!-- Flag emblem in orange -->
  <path class="brand-orange" d="M768.98,521.7v30.94l-39.2,17.49c-.85.41-1.89.23-2.57-.49-.8-.91-.72-2.28.17-3.08l32.29-28.78-5.41,1.91c-.85.29-1.82.04-2.42-.66-.76-.94-.64-2.31.28-3.08,5.16-4.27,10.89-9.15,16.86-14.25Z"/>
</svg>
