<?xml version="1.0" encoding="UTF-8"?>
<svg xmlns="http://www.w3.org/2000/svg" viewBox="0 0 1061.78 747.67">
  <g>
    <path fill="#ffffff" d="M1061.78,324.41c0,58.26-3.59,125.33-8.94,162.24-9.83,77.72-59.7,137.93-124.82,151.53-33.89,7.75-60.59,9.7-123.88,9.7H266.54v-11.71l17.07-7.62,100.95-45.09-34.2,27.59c-5.92,4.85-6.86,13.41-2.08,19.21,3.78,4.72,10.02,6.3,15.43,4.35,12.22-4.53,26.7-9.64,42.95-15.24,16.31-5.61,34.2-11.59,53.15-18.01,108.52-36.53,249.84-84.2,303.81-121.3l.76-.5c39.05-27.08,63.48-67.26,71.67-110.65,8.06-43.58-.38-90.25-27.46-129.74-17.89-26.07-41.51-45.72-67.96-58.38-13.79-6.61-28.21-11.27-43.2-14.11-43.58-8.06-90.31.44-129.68,27.46-.5.25-.75.44-1.07.82-83.2,61.22-184.59,147.69-279.12,228.43-1.2,1.13-2.58,2.33-3.97,3.4-5.73,4.91-11.4,9.76-17.07,14.55V0h513.47c125.71,0,184.59,15.56,225.59,60.21,33,34.95,46.36,75.76,52.59,158.33,1.76,30.1,3.59,74.82,3.59,105.87Z"/>
    <path fill="#ffffff" d="M266.54,441.3v194.86l-246.88,110.15c-5.35,2.58-11.9,1.45-16.19-3.09-5.04-5.73-4.53-14.36,1.07-19.4l203.36-181.25-34.07,12.03c-5.35,1.83-11.46.25-15.24-4.16-4.79-5.92-4.03-14.55,1.76-19.4,32.5-26.89,68.59-57.63,106.18-89.75Z"/>
  </g>
</svg>
